<?xml version="1.0" standalone="no"?>
<!DOCTYPE svg PUBLIC "-//W3C//DTD SVG 20010904//EN"
 "http://www.w3.org/TR/2001/REC-SVG-20010904/DTD/svg10.dtd">
<svg version="1.0" xmlns="http://www.w3.org/2000/svg"
 width="223.000000pt" height="100.000000pt" viewBox="0 0 200.000000 190.000000"
 preserveAspectRatio="xMidYMid meet">
<metadata>
Created by potrace 1.10, written by Peter Selinger 2001-2011
</metadata>
<g transform="translate(0.000000,192.000000) scale(0.050000,-0.050000)"
fill="#FFFFFF" stroke="none">
<path d="M1095 1583 c-16 -2 -50 -10 -75 -18 -25 -8 -62 -13 -82 -13 -44 2
-98 -36 -137 -96 -15 -21 -35 -39 -50 -42 -71 -14 -110 -61 -93 -112 8 -25 6
-28 -30 -44 -43 -19 -62 -56 -53 -100 5 -19 1 -37 -10 -54 -19 -30 -14 -83 12
-123 14 -22 14 -27 -1 -52 -23 -39 -11 -142 21 -178 12 -14 33 -41 45 -60 13
-19 44 -48 69 -65 27 -19 51 -45 61 -67 19 -46 117 -104 157 -94 70 17 80 17
107 -4 16 -13 41 -21 63 -21 21 0 42 -5 48 -11 7 -7 22 -9 40 -4 15 5 36 10
46 12 23 4 165 82 173 94 3 5 23 9 44 9 30 0 43 6 64 31 14 17 26 39 26 49 0
10 8 21 18 24 32 11 64 53 67 90 2 20 13 48 24 62 12 15 21 39 21 53 0 15 7
37 16 49 21 31 9 157 -17 183 -22 22 -62 25 -78 5 -19 -22 -82 -26 -111 -6
-20 13 -47 17 -137 16 -124 -1 -143 -9 -150 -63 -1 -15 -6 -45 -9 -65 -9 -53
27 -88 89 -88 44 0 64 -15 49 -36 -16 -21 -73 -54 -95 -54 -13 0 -37 -10 -52
-22 -22 -17 -31 -19 -46 -10 -10 7 -26 12 -35 12 -9 0 -34 16 -55 35 -22 20
-50 35 -63 35 -27 0 -56 33 -56 63 0 10 -7 32 -16 49 -14 27 -14 37 -3 70 12
37 11 40 -15 67 l-28 29 24 8 c12 4 29 7 37 5 18 -3 61 38 61 59 0 18 64 50
101 50 13 0 30 4 38 9 20 13 66 -3 95 -32 14 -14 35 -29 47 -32 13 -4 34 -18
48 -32 34 -31 66 -39 94 -20 21 13 36 17 145 33 29 5 49 15 62 32 25 31 25 40
0 72 -11 14 -20 41 -20 61 0 45 -41 86 -90 91 -26 2 -36 8 -38 23 -2 11 -14
30 -25 43 -17 18 -30 23 -57 20 -29 -4 -40 1 -66 29 -26 27 -39 33 -72 33 -22
0 -44 5 -47 10 -6 10 -41 11 -100 3z m93 -35 c28 -28 2 -88 -38 -88 -11 0 -27
11 -36 25 -15 23 -15 27 0 50 18 27 54 33 74 13z m-98 -17 c0 -11 -5 -23 -11
-27 -15 -9 -33 12 -26 30 9 23 37 20 37 -3z m200 -11 c24 -24 24 -29 4 -58
-26 -38 -84 -23 -84 22 0 23 27 56 47 56 7 0 22 -9 33 -20z m-250 -5 c20 -24
3 -57 -28 -53 -30 3 -41 30 -22 53 16 19 34 19 50 0z m-80 -15 c15 -28 -4 -60
-36 -60 -29 0 -47 35 -32 63 12 23 55 22 68 -3z m-83 -36 c3 -8 1 -20 -5 -26
-15 -15 -43 8 -35 28 7 19 32 18 40 -2z m542 2 c18 -22 -4 -58 -32 -54 -37 5
-36 68 1 68 11 0 25 -6 31 -14z m-307 -28 c42 -34 18 -91 -35 -86 -24 2 -34
10 -42 32 -8 24 -6 31 14 47 27 22 41 24 63 7z m-218 -51 c7 -29 -19 -67 -46
-67 -51 0 -77 65 -37 94 27 19 75 4 83 -27z m110 17 c32 -32 8 -84 -38 -84
-40 0 -63 46 -40 79 18 25 56 27 78 5z m264 -17 c4 -20 -25 -34 -40 -19 -15
15 -1 44 19 40 10 -2 19 -11 21 -21z m172 3 c0 -21 -24 -28 -35 -10 -8 14 3
30 21 30 8 0 14 -9 14 -20z m-56 -9 c21 -23 14 -56 -15 -72 -43 -23 -92 44
-57 79 18 18 53 14 72 -7z m-188 1 c6 -4 16 -16 22 -28 22 -42 -42 -86 -76
-52 -19 19 -14 55 10 72 25 18 29 19 44 8z m346 -9 c22 -20 23 -41 1 -65 -20
-22 -41 -23 -65 -1 -22 20 -23 41 -1 65 20 22 41 23 65 1z m-786 -1 c6 -4 17
-17 23 -30 11 -20 10 -27 -5 -43 -19 -21 -54 -25 -72 -7 -36 36 12 108 54 80z
m689 -43 c0 -7 -8 -15 -17 -17 -18 -3 -25 18 -11 32 10 10 28 1 28 -15z m-337
-1 c17 -17 15 -45 -4 -52 -18 -7 -44 10 -44 28 0 13 20 36 30 36 3 0 11 -5 18
-12z m197 -23 c30 -29 31 -39 5 -65 -24 -24 -47 -25 -72 -3 -24 21 -23 48 2
73 26 26 36 25 65 -5z m-281 9 c20 -8 21 -38 1 -54 -29 -24 -60 21 -33 48 14
14 12 14 32 6z m-66 -26 c19 -19 14 -56 -8 -63 -24 -8 -50 10 -50 34 0 19 19
41 35 41 6 0 16 -5 23 -12z m-162 -19 c3 -6 0 -17 -8 -25 -13 -13 -16 -13 -28
1 -12 14 -11 18 1 26 19 12 26 11 35 -2z m712 -1 c7 -7 12 -21 12 -33 0 -12
-5 -26 -12 -33 -7 -7 -21 -12 -33 -12 -12 0 -26 5 -33 12 -7 7 -12 21 -12 33
0 12 5 26 12 33 7 7 21 12 33 12 12 0 26 -5 33 -12z m87 -26 c8 -20 -19 -47
-39 -39 -26 10 -32 38 -12 53 21 15 42 9 51 -14z m-723 1 c24 -21 23 -55 -3
-79 -19 -17 -23 -17 -47 -3 -33 18 -40 54 -16 80 21 23 42 24 66 2z m533 -17
c22 -33 5 -66 -33 -66 -33 0 -52 16 -52 45 0 48 58 62 85 21z m-712 -17 c30
-42 -16 -94 -60 -70 -44 23 -27 91 22 91 13 0 30 -9 38 -21z m257 -31 c0 -15
-32 -21 -40 -7 -13 20 9 43 26 28 8 -6 14 -16 14 -21z m-161 -30 c14 -24 14
-28 -3 -47 -23 -25 -43 -27 -68 -4 -23 20 -23 41 -1 65 23 25 54 19 72 -14z
m-148 -64 c9 -11 10 -20 2 -32 -13 -22 -43 -22 -56 -1 -24 38 25 68 54 33z
m236 -20 c8 -21 -13 -42 -28 -27 -13 13 -5 43 11 43 6 0 13 -7 17 -16z m396
-8 c6 -15 -11 -36 -29 -36 -14 0 -23 20 -16 38 6 16 39 15 45 -2z m98 4 c39
-21 16 -90 -30 -90 -36 0 -55 71 -23 89 22 13 29 13 53 1z m83 4 c20 -8 21
-38 2 -53 -19 -16 -46 -3 -46 23 0 34 12 42 44 30z m201 -24 c0 -20 -6 -26
-26 -28 -30 -4 -46 22 -28 45 20 23 54 12 54 -17z m-934 -10 c22 -12 26 -59 7
-78 -7 -7 -21 -12 -33 -12 -43 0 -60 47 -28 82 19 21 27 22 54 8z m124 -14
c13 -19 14 -29 6 -45 -25 -45 -91 -33 -91 17 0 54 56 72 85 28z m723 -18 c2
-19 -2 -28 -18 -33 -24 -8 -50 10 -50 35 0 24 10 31 40 28 19 -2 26 -10 28
-30z m-933 2 c0 -8 -8 -16 -17 -18 -13 -2 -18 3 -18 18 0 15 5 20 18 18 9 -2
17 -10 17 -18z m661 -15 c15 -23 15 -27 0 -50 -19 -29 -42 -32 -68 -8 -22 20
-23 41 -1 65 23 25 50 23 69 -7z m192 -7 c7 -7 12 -21 12 -33 0 -12 -5 -26
-12 -33 -7 -7 -21 -12 -33 -12 -12 0 -26 5 -33 12 -7 7 -12 21 -12 33 0 12 5
26 12 33 7 7 21 12 33 12 12 0 26 -5 33 -12z m170 0 c28 -28 7 -78 -32 -78
-21 0 -56 27 -56 43 0 36 63 60 88 35z m-278 -33 c15 -19 -3 -45 -31 -45 -23
0 -32 15 -24 40 7 24 37 26 55 5z m-494 -34 c-4 -6 -16 -11 -27 -11 -21 0 -27
35 -6 43 16 6 41 -18 33 -32z m-101 9 c24 -26 13 -68 -20 -76 -33 -8 -55 11
-55 47 0 46 44 63 75 29z m765 5 c10 -12 10 -18 0 -29 -14 -18 -40 -10 -40 13
0 32 20 40 40 16z m-872 -7 c7 -7 12 -25 12 -40 0 -50 -71 -59 -92 -12 -20 44
46 86 80 52z m776 -44 c9 -8 16 -22 16 -30 0 -19 -36 -54 -55 -54 -17 0 -55
35 -55 51 0 45 61 66 94 33z m170 -3 c21 -23 14 -56 -15 -72 -43 -23 -92 44
-57 79 18 18 53 14 72 -7z m-730 -7 c24 -23 20 -61 -9 -80 -32 -21 -72 -11
-87 21 -24 54 54 102 96 59z m-134 -49 c19 -23 4 -64 -26 -71 -19 -5 -31 -1
-47 14 -18 18 -19 25 -9 47 13 29 61 35 82 10z m768 -8 c2 -12 -3 -17 -17 -17
-12 0 -21 6 -21 13 0 31 32 34 38 4z m-875 -1 c7 -19 -18 -40 -38 -32 -8 3
-15 15 -15 26 0 14 7 20 24 20 13 0 26 -6 29 -14z m368 -27 c18 -34 -3 -69
-41 -69 -22 0 -33 6 -41 24 -16 35 3 66 41 66 20 0 33 -7 41 -21z m339 1 c24
-24 24 -29 4 -58 -17 -24 -53 -29 -72 -10 -19 19 -14 55 10 72 29 20 34 20 58
-4z m211 -10 c22 -12 26 -59 7 -78 -19 -19 -66 -15 -78 7 -14 27 -13 47 6 65
18 19 38 20 65 6z m-120 -16 c17 -21 0 -49 -32 -49 -24 0 -36 23 -25 51 7 19
40 18 57 -2z m-197 -10 c32 -31 14 -84 -29 -84 -43 0 -60 47 -28 82 20 22 37
23 57 2z m-351 -15 c18 -25 11 -56 -15 -70 -42 -23 -90 45 -56 79 19 19 55 14
71 -9z m-206 0 c14 -14 6 -39 -12 -39 -18 0 -28 17 -21 35 6 18 18 19 33 4z
m414 1 c22 -12 26 -59 7 -78 -7 -7 -21 -12 -33 -12 -29 0 -45 19 -45 52 0 39
34 57 71 38z m-306 -34 c8 -24 6 -31 -13 -46 -27 -23 -60 -15 -74 16 -9 19 -8
28 7 44 27 30 67 23 80 -14z m203 -12 c28 -20 30 -69 3 -84 -51 -27 -101 12
-82 63 15 38 44 46 79 21z m387 -14 c0 -20 -5 -25 -25 -25 -28 0 -41 32 -18
46 23 15 43 5 43 -21z m-228 -34 c-4 -9 -11 -16 -17 -16 -17 0 -24 31 -9 41
18 11 34 -5 26 -25z m133 20 c0 -8 -5 -18 -11 -22 -14 -8 -33 11 -25 25 10 16
36 13 36 -3z m190 -6 c24 -24 24 -29 4 -58 -29 -42 -84 -23 -84 30 0 45 46 62
80 28z m-612 -26 c43 -30 21 -94 -32 -94 -22 0 -46 28 -46 55 0 20 32 55 50
55 3 0 16 -7 28 -16z m499 -20 c14 -22 14 -26 -1 -49 -18 -27 -63 -34 -84 -13
-19 19 -14 65 9 81 26 19 56 11 76 -19z m-239 -7 c2 -10 -3 -17 -12 -17 -18 0
-29 16 -21 31 9 14 29 6 33 -14z m99 -14 c14 -20 13 -24 -12 -48 -24 -25 -28
-26 -48 -12 -44 29 -28 91 21 85 14 -2 31 -13 39 -25z m-224 -25 c8 -12 7 -21
-2 -32 -21 -25 -50 -20 -57 10 -11 42 36 59 59 22z m117 -8 c24 -24 24 -29 4
-58 -18 -26 -50 -28 -76 -5 -22 20 -23 41 -1 65 21 24 48 23 73 -2z m-193 -44
c-8 -20 -43 -21 -51 -1 -3 8 2 22 11 30 14 15 18 15 31 1 8 -8 12 -22 9 -30z
m361 7 c-2 -10 -10 -18 -18 -18 -8 0 -16 8 -18 18 -2 12 3 17 18 17 15 0 20
-5 18 -17z m-45 -17 c8 -20 -20 -43 -35 -28 -14 14 -3 42 16 42 7 0 16 -6 19
-14z m-63 -27 c0 -23 -28 -26 -37 -3 -6 16 15 37 29 28 4 -3 8 -14 8 -25z"/>
</g>
</svg>
